<svg viewBox="0 0 191 61" fill="currentColor" xmlns="http://www.w3.org/2000/svg">
<path d="M21.5904 60C20.2238 60 18.9938 59.7267 17.9004 59.18C16.8071 58.5787 16.2604 57.704 16.2604 56.556V9.652H4.20645C3.16778 9.652 2.34778 9.16 1.74645 8.176C1.14511 7.192 0.844445 6.07133 0.844445 4.814C0.844445 3.666 1.11778 2.6 1.66445 1.616C2.21111 0.577333 3.05845 0.0579995 4.20645 0.0579995H38.8924C40.0951 0.0579995 40.9424 0.577333 41.4344 1.616C41.9811 2.6 42.2544 3.666 42.2544 4.814C42.2544 6.07133 41.9538 7.192 41.3524 8.176C40.8058 9.16 39.9858 9.652 38.8924 9.652H26.9204V56.556C26.9204 57.704 26.3464 58.5787 25.1984 59.18C24.1051 59.7267 22.9024 60 21.5904 60ZM53.2783 60C51.9663 60 50.7363 59.7267 49.5883 59.18C48.495 58.5787 47.9483 57.704 47.9483 56.556V3.42C47.9483 2.21733 48.495 1.37 49.5883 0.877999C50.7363 0.331333 51.9663 0.0579995 53.2783 0.0579995C54.645 0.0579995 55.875 0.331333 56.9683 0.877999C58.0617 1.37 58.6083 2.21733 58.6083 3.42V56.556C58.6083 57.704 58.0617 58.5787 56.9683 59.18C55.875 59.7267 54.645 60 53.2783 60ZM86.8144 60.492C83.4251 60.492 80.2817 59.8907 77.3844 58.688C74.4871 57.4307 72.1637 55.4353 70.4144 52.702C68.7197 49.914 67.8724 46.224 67.8724 41.632V18.918C67.8724 14.326 68.7197 10.6633 70.4144 7.93C72.1637 5.142 74.4871 3.14666 77.3844 1.944C80.2817 0.686666 83.4524 0.0579995 86.8964 0.0579995C90.7231 0.0579995 94.0851 0.713999 96.9824 2.026C99.9344 3.28333 102.23 5.06 103.87 7.356C105.565 9.652 106.412 12.4127 106.412 15.638C106.412 17.77 105.975 19.1913 105.1 19.902C104.226 20.558 102.886 20.886 101.082 20.886C99.6064 20.886 98.3491 20.64 97.3104 20.148C96.3264 19.6013 95.8071 18.7267 95.7524 17.524C95.7524 16.868 95.6431 16.1027 95.4244 15.228C95.2604 14.2987 94.9051 13.3967 94.3584 12.522C93.8117 11.6473 92.9644 10.9093 91.8164 10.308C90.7231 9.70666 89.1924 9.406 87.2244 9.406C84.4364 9.406 82.3044 10.1987 80.8284 11.784C79.3524 13.3147 78.6144 15.6927 78.6144 18.918V41.632C78.6144 44.912 79.3524 47.3173 80.8284 48.848C82.3591 50.3787 84.5457 51.144 87.3884 51.144C89.2471 51.144 90.7231 50.8433 91.8164 50.242C92.9097 49.6407 93.7024 48.9027 94.1944 48.028C94.7411 47.0987 95.0964 46.142 95.2604 45.158C95.4791 44.174 95.6431 43.2447 95.7524 42.37C95.8617 41.058 96.4084 40.1833 97.3924 39.746C98.3764 39.254 99.5791 39.008 101 39.008C102.859 39.008 104.226 39.3633 105.1 40.074C105.975 40.7847 106.412 42.1787 106.412 44.256C106.412 47.536 105.565 50.406 103.87 52.866C102.23 55.326 99.9344 57.212 96.9824 58.524C94.0304 59.836 90.6411 60.492 86.8144 60.492ZM118.366 60C117.218 60 116.152 59.7267 115.168 59.18C114.184 58.5787 113.692 57.704 113.692 56.556V3.42C113.692 2.21733 114.239 1.37 115.332 0.877999C116.48 0.331333 117.71 0.0579995 119.022 0.0579995C120.389 0.0579995 121.619 0.331333 122.712 0.877999C123.806 1.37 124.352 2.21733 124.352 3.42V50.652H144.442C145.536 50.652 146.328 51.144 146.82 52.128C147.312 53.0573 147.558 54.1233 147.558 55.326C147.558 56.474 147.312 57.54 146.82 58.524C146.328 59.508 145.536 60 144.442 60H118.366ZM158.005 60C156.857 60 155.791 59.7267 154.807 59.18C153.823 58.5787 153.331 57.704 153.331 56.556V3.502C153.331 2.354 153.823 1.50666 154.807 0.959998C155.791 0.358666 156.857 0.0579995 158.005 0.0579995H187.197C188.4 0.0579995 189.247 0.549998 189.739 1.534C190.286 2.518 190.559 3.55666 190.559 4.65C190.559 5.962 190.258 7.08267 189.657 8.012C189.11 8.94133 188.29 9.406 187.197 9.406H163.991V25.806H176.455C177.548 25.806 178.368 26.2433 178.915 27.118C179.516 27.938 179.817 28.922 179.817 30.07C179.817 30.9993 179.544 31.9287 178.997 32.858C178.505 33.7327 177.658 34.17 176.455 34.17H163.991V50.652H187.197C188.29 50.652 189.11 51.1167 189.657 52.046C190.258 52.9753 190.559 54.096 190.559 55.408C190.559 56.5013 190.286 57.54 189.739 58.524C189.247 59.508 188.4 60 187.197 60H158.005Z" fill="currentColor"/>
</svg>
