<svg width="18" height="20" viewBox="0 0 18 20" fill="currentColor" xmlns="http://www.w3.org/2000/svg">
<path fill-rule="evenodd" clip-rule="evenodd" d="M11.2242 2.46035C11.0208 2.41152 10.7931 2.40509 10.0117 2.40509H7.79992C6.94334 2.40509 6.36104 2.40587 5.91096 2.44264C5.47254 2.47846 5.24834 2.54339 5.09194 2.62308C4.71561 2.81483 4.40965 3.12079 4.2179 3.49711C4.13821 3.65351 4.07329 3.87771 4.03747 4.31613C4.00069 4.76622 3.99992 5.34851 3.99992 6.20509V9.40509H1.99992L1.99992 6.16379C1.9999 5.35882 1.99989 4.69446 2.04411 4.15327C2.09004 3.59117 2.1886 3.07447 2.43589 2.58913C2.81938 1.83648 3.43131 1.22456 4.18396 0.841066C4.66929 0.593775 5.18599 0.495211 5.74809 0.449286C6.28929 0.405069 6.95365 0.405079 7.75862 0.405092L10.0117 0.405092C10.0461 0.405092 10.0801 0.405076 10.1136 0.40506C10.7486 0.404758 11.2284 0.40453 11.6911 0.515613C12.0992 0.6136 12.4894 0.775217 12.8473 0.994532C13.253 1.24316 13.5921 1.58258 14.0409 2.03181C14.0646 2.05552 14.0886 2.07954 14.1129 2.10387L16.3011 4.2921C16.3255 4.31643 16.3495 4.34043 16.3732 4.36412C16.8224 4.81291 17.1619 5.15202 17.4105 5.55774C17.6298 5.91563 17.7914 6.30581 17.8894 6.71395C18.0005 7.17664 18.0003 7.65644 17.9999 8.29143C17.9999 8.32496 17.9999 8.35891 17.9999 8.39332V12.6464C17.9999 13.4513 17.9999 14.1157 17.9557 14.6569C17.9098 15.219 17.8112 15.7357 17.5639 16.2211C17.1805 16.9737 16.5685 17.5856 15.8159 17.9691C15.3305 18.2164 14.8138 18.315 14.2517 18.3609C13.7106 18.4051 13.0462 18.4051 12.2412 18.4051H10.9999V16.4051H12.1999C13.0565 16.4051 13.6388 16.4043 14.0889 16.3675C14.5273 16.3317 14.7515 16.2668 14.9079 16.1871C15.2842 15.9954 15.5902 15.6894 15.7819 15.3131C15.8616 15.1567 15.9265 14.9325 15.9624 14.4941C15.9991 14.044 15.9999 13.4617 15.9999 12.6051V8.39332C15.9999 7.61195 15.9935 7.38425 15.9447 7.18084C15.8957 6.97677 15.8149 6.78168 15.7052 6.60274C15.5959 6.42438 15.4394 6.25882 14.8869 5.70631L12.6987 3.51809C12.1462 2.96557 11.9806 2.80911 11.8023 2.69981C11.6233 2.59015 11.4282 2.50935 11.2242 2.46035Z"/>
<path fill-rule="evenodd" clip-rule="evenodd" d="M3.52558 13.9308L4.43071 11.2154H5.56913L6.47426 13.9308L9.18965 14.8359V15.9743L6.47426 16.8794L5.56913 19.5948H4.43071L3.52558 16.8794L0.810181 15.9743V14.8359L3.52558 13.9308Z" />
<path fill-rule="evenodd" clip-rule="evenodd" d="M11.9999 2.40509V6.40509H15.9999V8.40509H10.9999C10.4476 8.40509 9.99992 7.95738 9.99992 7.40509V2.40509H11.9999Z"/>
</svg>
