<svg width="20" height="20" viewBox="0 0 20 20" fill="currentColor" xmlns="http://www.w3.org/2000/svg">
<path d="M15.9999 13H12.9999V16H15.9999V13Z"/>
<path fill-rule="evenodd" clip-rule="evenodd" d="M14.1998 3.1H4.79989V0H2.99989V3.10078C2.75624 3.10244 2.53524 3.10758 2.34131 3.12343C2.03552 3.14841 1.71867 3.20442 1.41022 3.36158C0.958627 3.59168 0.591474 3.95883 0.361378 4.41042C0.204212 4.71888 0.148202 5.03573 0.123219 5.34151C0.0997574 5.62867 0.0997739 5.97516 0.0997936 6.36667V16.6333C0.0997739 17.0248 0.0997574 17.3713 0.123219 17.6585C0.148202 17.9643 0.204212 18.2811 0.361378 18.5896C0.591474 19.0412 0.958627 19.4083 1.41022 19.6384C1.71867 19.7956 2.03552 19.8516 2.34131 19.8766C2.62844 19.9 2.97489 19.9 3.36636 19.9H16.6331C17.0246 19.9 17.3711 19.9 17.6583 19.8766C17.9641 19.8516 18.2809 19.7956 18.5894 19.6384C19.041 19.4083 19.4081 19.0412 19.6382 18.5896C19.7954 18.2811 19.8514 17.9643 19.8764 17.6585C19.8998 17.3713 19.8998 17.0248 19.8998 16.6333V6.36666C19.8998 5.97518 19.8998 5.62865 19.8764 5.34151C19.8514 5.03573 19.7954 4.71888 19.6382 4.41042C19.4081 3.95883 19.041 3.59168 18.5894 3.36158C18.2809 3.20442 17.9641 3.14841 17.6583 3.12343C17.3711 3.09996 17.0246 3.09998 16.6331 3.1L15.9998 3.1V0H14.1998V3.1ZM2.48789 4.91745C2.29341 4.93334 2.23981 4.95907 2.2274 4.9654C2.1145 5.02292 2.02271 5.11471 1.96519 5.22761C1.95887 5.24002 1.93313 5.29362 1.91724 5.48809C1.90049 5.69307 1.89979 5.96511 1.89979 6.4V8.2001H18.0998V6.4C18.0998 5.96511 18.0991 5.69307 18.0823 5.48809C18.0665 5.29362 18.0407 5.24002 18.0344 5.22761C17.9769 5.11471 17.8851 5.02292 17.7722 4.9654C17.7598 4.95907 17.7062 4.93334 17.5117 4.91745C17.3067 4.9007 17.0347 4.9 16.5998 4.9H3.39979C2.9649 4.9 2.69286 4.9007 2.48789 4.91745ZM1.89979 16.6V10.0001H18.0998V16.6C18.0998 17.0349 18.0991 17.3069 18.0823 17.5119C18.0665 17.7064 18.0407 17.76 18.0344 17.7724C17.9769 17.8853 17.8851 17.9771 17.7722 18.0346C17.7598 18.0409 17.7062 18.0667 17.5117 18.0826C17.3067 18.0993 17.0347 18.1 16.5998 18.1H3.39979C2.9649 18.1 2.69286 18.0993 2.48789 18.0826C2.29341 18.0667 2.23981 18.0409 2.2274 18.0346C2.1145 17.9771 2.02271 17.8853 1.96519 17.7724C1.95887 17.76 1.93313 17.7064 1.91724 17.5119C1.90049 17.3069 1.89979 17.0349 1.89979 16.6Z"/>
</svg>
