<svg width="30" height="30" viewBox="0 0 30 30" fill="none" xmlns="http://www.w3.org/2000/svg">
<path fill-rule="evenodd" clip-rule="evenodd" d="M7.5027 7.18841H17.3905C19.7833 7.18841 21.1706 8.54774 21.1706 10.894V12.0578L24.513 9.2181C24.9506 8.85499 25.4068 8.60361 25.8538 8.60361C26.701 8.60361 27.2876 9.2181 27.2876 10.1398V19.8693C27.2876 20.7911 26.701 21.4056 25.8538 21.4056C25.4068 21.4056 24.9506 21.1542 24.513 20.7818L21.1706 17.9514V19.1617C21.1706 19.6738 21.0775 20.1766 20.9099 20.5956L19.3085 18.9942C19.3457 18.8452 19.3643 18.7055 19.3643 18.5193V11.164C19.3643 9.64639 18.5357 8.87361 17.0832 8.87361H9.18791L7.5027 7.18841ZM17.6326 22.7649H7.70753C5.31473 22.7649 3.93677 21.4708 3.93677 19.1338V10.475C3.93677 10.0188 3.94608 9.59052 3.97401 9.15293L5.7337 10.9219V18.7986C5.7337 20.3069 6.56234 21.089 8.01478 21.089H15.9567L17.6326 22.7649ZM21.1706 15.9496L25.2113 19.2549C25.2232 19.2628 25.2345 19.2705 25.2454 19.2779C25.3113 19.323 25.3615 19.3573 25.4255 19.3573C25.5279 19.3573 25.5837 19.2735 25.5837 19.1524V10.8568C25.5837 10.7264 25.5279 10.6519 25.4255 10.6519C25.351 10.6519 25.2951 10.6892 25.2113 10.7543L21.1706 14.0596V15.9496Z" fill="currentColor"/>
<path d="M21.2171 24.6643C21.515 24.9529 21.9899 24.9529 22.2692 24.6643C22.5485 24.3756 22.5578 23.9101 22.2692 23.6122L13.1263 14.4739L3.98332 5.33561C3.69469 5.04698 3.21986 5.04698 2.92192 5.33561C2.6426 5.62424 2.6426 6.10838 2.92192 6.3877L21.2171 24.6643Z" fill="#F45D55"/>
</svg>
