<svg width="30" height="30" viewBox="0 0 30 30" fill="none" xmlns="http://www.w3.org/2000/svg">
<path d="M7.09535 22.7884H16.7783C19.1711 22.7884 20.5584 21.4384 20.5584 19.0922V17.9749L23.9009 20.8053C24.3385 21.1777 24.7947 21.4291 25.2416 21.4291C26.0888 21.4291 26.6754 20.8146 26.6754 19.8929V10.1634C26.6754 9.24161 26.0888 8.62711 25.2416 8.62711C24.7947 8.62711 24.3385 8.8785 23.9009 9.24161L20.5584 12.0813V10.9175C20.5584 8.57125 19.1711 7.21191 16.7783 7.21191H7.09535C4.78634 7.21191 3.32458 8.57125 3.32458 10.9175V19.1573C3.32458 21.4943 4.70254 22.7884 7.09535 22.7884ZM7.4026 21.1125C5.95015 21.1125 5.12152 20.3305 5.12152 18.8221V11.1875C5.12152 9.65127 5.95015 8.89712 7.4026 8.89712H16.4711C17.9235 8.89712 18.7521 9.66989 18.7521 11.1875V18.8221C18.7521 20.3305 17.9142 21.1125 16.4711 21.1125H7.4026ZM24.5991 19.2784L20.5584 15.9731V14.0831L24.5991 10.7778C24.6829 10.7127 24.7388 10.6754 24.8133 10.6754C24.9157 10.6754 24.9716 10.7499 24.9716 10.8803V19.1759C24.9716 19.297 24.9157 19.3808 24.8133 19.3808C24.7388 19.3808 24.6829 19.3342 24.5991 19.2784Z" fill="currentColor"/>
</svg>
