<svg width="20" height="20" viewBox="0 0 20 20" fill="none" xmlns="http://www.w3.org/2000/svg">
<path fill-rule="evenodd" clip-rule="evenodd" d="M0.0999146 10.0001C0.0999146 9.67318 0.115792 9.3497 0.146864 9.03042L1.9384 9.20478C1.91296 9.46619 1.89991 9.73149 1.89991 10.0001C1.89991 14.4736 5.52641 18.1001 9.99991 18.1001C14.4734 18.1001 18.0999 14.4736 18.0999 10.0001C18.0999 5.52659 14.4734 1.9001 9.99991 1.9001C9.73131 1.9001 9.46601 1.91314 9.2046 1.93858L9.03024 0.147047C9.34952 0.115975 9.67299 0.100098 9.99991 0.100098C15.4675 0.100098 19.8999 4.53248 19.8999 10.0001C19.8999 15.4677 15.4675 19.9001 9.99991 19.9001C4.5323 19.9001 0.0999146 15.4677 0.0999146 10.0001ZM7.12551 0.524081C6.4989 0.713925 5.89868 0.964133 5.33165 1.26784L6.18153 2.85457C6.64519 2.60623 7.13565 2.40181 7.64743 2.24675L7.12551 0.524081ZM3.71894 2.34735C3.2182 2.75877 2.75859 3.21838 2.34717 3.71913L3.73794 4.86181C4.07495 4.45164 4.45146 4.07513 4.86163 3.73813L3.71894 2.34735ZM1.26766 5.33183C0.96395 5.89886 0.713742 6.49908 0.523898 7.12569L2.24657 7.64761C2.40162 7.13584 2.60604 6.64537 2.85439 6.18171L1.26766 5.33183ZM8.59994 5.5001V11.0001V11.356L8.84336 11.6157L11.8434 14.8156L13.1565 13.5845L10.3999 10.6442V5.5001H8.59994Z" fill="#7057FF"/>
</svg>
