<svg width="18" height="18" viewBox="0 0 18 18" fill="current" xmlns="http://www.w3.org/2000/svg">
<path fill-rule="evenodd" clip-rule="evenodd" d="M1.33071 1.33071C1.83839 0.823031 2.66151 0.823031 3.16919 1.33071L8.99994 7.16147L14.8307 1.33071C15.3384 0.823031 16.1615 0.823031 16.6692 1.33071C17.1769 1.83839 17.1769 2.66151 16.6692 3.16919L10.8384 8.99995L16.6692 14.8307C17.1769 15.3384 17.1769 16.1615 16.6692 16.6692C16.1615 17.1769 15.3384 17.1769 14.8307 16.6692L8.99994 10.8384L3.16919 16.6692C2.66151 17.1769 1.83839 17.1769 1.33071 16.6692C0.823031 16.1615 0.823031 15.3384 1.33071 14.8307L7.16147 8.99995L1.33071 3.16919C0.823031 2.66151 0.823031 1.83839 1.33071 1.33071Z" fill="current"/>
</svg>
