<svg width="20" height="20" viewBox="0 0 20 20" fill="current" xmlns="http://www.w3.org/2000/svg">
<path fill-rule="evenodd" clip-rule="evenodd" d="M0.100342 10.0001C0.100342 4.53248 4.53272 0.100098 10.0003 0.100098C15.4679 0.100098 19.9003 4.53248 19.9003 10.0001C19.9003 15.4677 15.4679 19.9001 10.0003 19.9001C4.53272 19.9001 0.100342 15.4677 0.100342 10.0001ZM11.0003 14.2501C11.0003 14.8024 10.5526 15.2501 10.0003 15.2501C9.44804 15.2501 9.00033 14.8024 9.00033 14.2501C9.00033 13.6978 9.44804 13.2501 10.0003 13.2501C10.5526 13.2501 11.0003 13.6978 11.0003 14.2501ZM9.10032 4.75012V11.7501H10.9003V4.75012H9.10032Z" fill="current"/>
</svg>
