<svg width="15" height="10" viewBox="0 0 15 10" fill="current" xmlns="http://www.w3.org/2000/svg">
<path d="M3 5C3 2.51472 5.01472 0.5 7.5 0.5V0.5C9.98528 0.5 12 2.51472 12 5V5C12 7.48528 9.98528 9.5 7.5 9.5V9.5C5.01472 9.5 3 7.48528 3 5V5Z" fill="current"/>
<path d="M7.95005 7.54999C7.95005 7.79852 7.74857 7.99999 7.50005 7.99999C7.25152 7.99999 7.05005 7.79852 7.05005 7.54999C7.05005 7.30146 7.25152 7.09999 7.50005 7.09999C7.74857 7.09999 7.95005 7.30146 7.95005 7.54999Z" fill="white"/>
<path fill-rule="evenodd" clip-rule="evenodd" d="M7.16256 6.275V2H7.83755V6.275H7.16256Z" fill="white"/>
</svg>
