<svg width="30" height="30" viewBox="0 0 30 30" fill="none" xmlns="http://www.w3.org/2000/svg">
<path d="M14.9964 10.5C10.5445 10.51 6.4112 11.4337 4.34955 13.512C3.4233 14.4457 2.94524 15.5802 3.005 16.9658C3.04483 17.779 3.30379 18.4919 3.78185 18.9838C4.16032 19.3553 4.67822 19.5762 5.28576 19.4758L8.99076 18.8433C9.56842 18.7529 9.96681 18.5722 10.2258 18.3111C10.5544 17.9798 10.654 17.4979 10.654 16.8453L10.664 15.8112C10.664 15.6505 10.7337 15.53 10.8233 15.4296C10.9329 15.3092 11.0823 15.2489 11.2018 15.2288C11.889 15.0682 13.2933 14.9076 15.0064 14.9076C16.7095 14.9076 18.1138 15.028 18.801 15.2288C18.9106 15.259 19.06 15.3192 19.1696 15.4296C19.2592 15.53 19.3189 15.6505 19.3289 15.8011L19.3389 16.8453C19.3488 17.4979 19.4484 17.9798 19.7771 18.3111C20.036 18.5722 20.4344 18.7529 21.0121 18.8433L24.6773 19.4657C25.3047 19.5762 25.8326 19.3453 26.231 18.9437C26.709 18.4818 26.9779 17.769 26.9979 16.9457C27.0377 15.5702 26.5198 14.4357 25.6035 13.512C23.5418 11.4337 19.4584 10.5 14.9964 10.5Z" fill="currentColor"/>
</svg>
