<svg width="23" height="22" viewBox="0 0 23 22" fill="none" xmlns="http://www.w3.org/2000/svg">
<g clip-path="url(#clip0_146_4495)">
<path fill-rule="evenodd" clip-rule="evenodd" d="M11.4961 0.549805C8.90103 0.551151 6.39101 1.47029 4.41492 3.14286C2.43882 4.81543 1.12549 7.13238 0.709766 9.67939C0.294044 12.2264 0.803031 14.8374 2.14573 17.0455C3.48842 19.2537 5.57727 20.9149 8.03875 21.7322C8.58179 21.833 8.78634 21.4964 8.78634 21.2103C8.78634 20.9241 8.77548 20.0944 8.77186 19.1872C5.73081 19.8442 5.08822 17.9039 5.08822 17.9039C4.59224 16.644 3.87542 16.3129 3.87542 16.3129C2.88346 15.6397 3.94964 15.6523 3.94964 15.6523C5.0484 15.7297 5.62584 16.7736 5.62584 16.7736C6.59969 18.4349 8.18356 17.9543 8.80625 17.6736C8.904 16.9698 9.18819 16.4911 9.50135 16.2193C7.07214 15.9457 4.51983 15.0134 4.51983 10.8485C4.50477 9.7684 4.90788 8.72385 5.64574 7.93098C5.53352 7.65741 5.15881 6.5523 5.75254 5.05123C5.75254 5.05123 6.67029 4.75965 8.75919 6.16533C10.5509 5.67814 12.4413 5.67814 14.2331 6.16533C16.3202 4.75965 17.2361 5.05123 17.2361 5.05123C17.8316 6.5487 17.4569 7.65381 17.3447 7.93098C18.0849 8.72398 18.4889 9.77035 18.4724 10.8521C18.4724 15.026 15.9147 15.9457 13.4819 16.2139C13.8728 16.5523 14.2222 17.2128 14.2222 18.2279C14.2222 19.6822 14.2095 20.8521 14.2095 21.2103C14.2095 21.5 14.4068 21.8384 14.9607 21.7322C17.4225 20.9148 19.5116 19.2533 20.8542 17.0448C22.1969 14.8363 22.7056 12.2249 22.2894 9.67762C21.8732 7.13036 20.5593 4.8134 18.5825 3.14111C16.6058 1.46883 14.0952 0.550298 11.4997 0.549805H11.4961Z" fill="white"/>
<path d="M4.70422 16.1565C4.68069 16.2105 4.5938 16.2267 4.52321 16.1889C4.45261 16.1511 4.40012 16.0809 4.42546 16.0251C4.45081 15.9694 4.53588 15.955 4.60648 15.9928C4.67707 16.0305 4.73137 16.1025 4.70422 16.1565Z" fill="white"/>
<path d="M5.14774 16.6475C5.11025 16.6663 5.06737 16.6715 5.02642 16.6623C4.98547 16.6531 4.94902 16.6301 4.92328 16.5971C4.85269 16.5215 4.8382 16.4171 4.8925 16.3703C4.94681 16.3235 5.04456 16.3451 5.11516 16.4207C5.18575 16.4963 5.20204 16.6007 5.14774 16.6475Z" fill="white"/>
<path d="M5.5785 17.2718C5.51153 17.3185 5.39748 17.2718 5.33413 17.1782C5.31661 17.1614 5.30268 17.1412 5.29316 17.119C5.28364 17.0967 5.27873 17.0728 5.27873 17.0486C5.27873 17.0244 5.28364 17.0004 5.29316 16.9782C5.30268 16.9559 5.31661 16.9358 5.33413 16.919C5.4011 16.874 5.51515 16.919 5.5785 17.0108C5.64186 17.1026 5.64367 17.225 5.5785 17.2718Z" fill="white"/>
<path d="M6.16322 17.8769C6.10348 17.9435 5.9822 17.9255 5.88265 17.8355C5.78309 17.7455 5.75955 17.6231 5.81928 17.5584C5.87902 17.4936 6.0003 17.5116 6.10348 17.5998C6.20666 17.6879 6.22657 17.8121 6.16322 17.8769Z" fill="white"/>
<path d="M6.98318 18.2298C6.95603 18.3144 6.83293 18.3522 6.70984 18.3162C6.58675 18.2802 6.5053 18.1794 6.52883 18.093C6.55236 18.0066 6.67726 17.967 6.80216 18.0066C6.92706 18.0462 7.00671 18.1416 6.98318 18.2298Z" fill="white"/>
<path d="M7.87748 18.2912C7.87748 18.3794 7.77612 18.455 7.64579 18.4568C7.51546 18.4586 7.40866 18.3866 7.40866 18.2984C7.40866 18.2102 7.51002 18.1346 7.64035 18.1328C7.77068 18.131 7.87748 18.2012 7.87748 18.2912Z" fill="white"/>
<path d="M8.71004 18.1526C8.72633 18.2408 8.63582 18.3326 8.50549 18.3542C8.37516 18.3758 8.26112 18.3236 8.24483 18.2372C8.22854 18.1508 8.32267 18.0572 8.44938 18.0338C8.57609 18.0104 8.69375 18.0644 8.71004 18.1526Z" fill="white"/>
</g>
<defs>
<clipPath id="clip0_146_4495">
<rect width="22" height="22" fill="white" transform="translate(0.5)"/>
</clipPath>
</defs>
</svg>
