<svg width="30" height="30" viewBox="0 0 30 30" fill="none" xmlns="http://www.w3.org/2000/svg">
<path d="M15 18.6071C17.3008 18.6071 18.9093 16.8194 18.9093 14.2598V7.68074C18.9093 5.12105 17.3008 3.3335 15 3.3335C12.7094 3.3335 11.0908 5.12105 11.0908 7.68074V14.2598C11.0908 16.8194 12.7094 18.6071 15 18.6071ZM15 16.6502C13.8089 16.6502 13.0556 15.6983 13.0556 14.3021V7.63843C13.0556 6.24223 13.8089 5.29029 15 5.29029C16.1911 5.29029 16.9445 6.24223 16.9445 7.63843V14.3021C16.9445 15.6983 16.1911 16.6502 15 16.6502ZM10.3171 26.6668H19.683C20.2226 26.6668 20.6705 26.212 20.6705 25.6621C20.6705 25.1015 20.2226 24.6572 19.683 24.6572H15.9468V22.51C19.9681 22.108 22.7778 19.1147 22.7778 14.7358V12.652C22.7778 12.0914 22.3503 11.6578 21.8107 11.6578C21.2712 11.6578 20.8232 12.0914 20.8232 12.652V14.6617C20.8232 18.2685 18.4715 20.6379 15 20.6379C11.5285 20.6379 9.17686 18.2685 9.17686 14.6617V12.652C9.17686 12.0914 8.73911 11.6578 8.19955 11.6578C7.65999 11.6578 7.22223 12.0914 7.22223 12.652V14.7358C7.22223 19.1147 10.032 22.108 14.0533 22.51V24.6572H10.3171C9.7775 24.6572 9.32956 25.1015 9.32956 25.6621C9.32956 26.212 9.7775 26.6668 10.3171 26.6668Z" fill="currentColor"/>
</svg>
