<svg width="30" height="30" viewBox="0 0 30 30" fill="currentColor" xmlns="http://www.w3.org/2000/svg">
<path d="M18.6233 8.20323C18.6233 5.82637 17.0104 4.1665 14.728 4.1665C12.7702 4.1665 11.3299 5.41386 10.995 7.26035V7.58446L12.7906 9.31308V8.16394C12.7906 6.86747 13.5412 5.98353 14.728 5.98353C15.9149 5.98353 16.6655 6.86747 16.6655 8.16394V12.8391C16.6655 12.9176 16.6554 12.9864 16.6554 13.0552L18.5727 14.9115C18.603 14.715 18.6233 14.5186 18.6233 14.3124V8.20323ZM10.0618 25.8332H19.3943C19.9319 25.8332 20.3782 25.4109 20.3782 24.9002C20.3782 24.3797 19.9319 23.9671 19.3943 23.9671H15.6715V21.9732C16.8989 21.8555 18.0046 21.5214 18.958 20.9714L17.5582 19.6258C16.7568 20.0187 15.7932 20.2349 14.728 20.2349C11.2689 20.2349 8.92569 18.0347 8.92569 14.6855V12.8194C8.92569 12.2989 8.47935 11.8962 7.94172 11.8962C7.40409 11.8962 6.9679 12.2989 6.9679 12.8194V14.7543C6.9679 18.8205 9.76764 21.6 13.7846 21.9732V23.9671H10.0618C9.52418 23.9671 9.07784 24.3797 9.07784 24.9002C9.07784 25.4109 9.52418 25.8332 10.0618 25.8332ZM20.2261 16.5026L21.7781 18.0052C22.2346 17.0624 22.478 15.9624 22.478 14.7543V12.8194C22.478 12.2989 22.0418 11.8962 21.5042 11.8962C20.9666 11.8962 20.5304 12.2989 20.5304 12.8194V14.6855C20.5304 15.3436 20.429 15.9525 20.2261 16.5026ZM14.728 18.3491C15.1947 18.3491 15.6207 18.2705 16.0062 18.1231L14.2309 16.4043C14.1701 16.4338 14.089 16.4338 14.0079 16.4338C13.4601 16.3159 13.0441 15.8838 12.9123 15.3239L12.9022 15.1178L10.8328 13.1141V14.3124C10.8328 16.6892 12.4355 18.3491 14.728 18.3491Z"/>
<path d="M22.5592 22.6495C22.8838 22.954 23.4011 22.954 23.7054 22.6495C24.0098 22.3352 24.0199 21.8441 23.7054 21.5396L7.44461 5.81506C7.13015 5.51059 6.61281 5.50077 6.29835 5.81506C5.98388 6.10971 5.98388 6.62044 6.29835 6.91509L22.5592 22.6495Z" fill="#F45D56"/>
</svg>
