<svg width="20" height="20" viewBox="0 0 20 20" fill="currentColor" xmlns="http://www.w3.org/2000/svg">
<path fill-rule="evenodd" clip-rule="evenodd" d="M7.12199 5.27775C7.12199 3.6884 8.41041 2.39998 9.99976 2.39998C11.5891 2.39998 12.8775 3.6884 12.8775 5.27775C12.8775 6.86711 11.5891 8.15553 9.99976 8.15553C8.41041 8.15553 7.12199 6.86711 7.12199 5.27775ZM9.99976 0.599976C7.4163 0.599976 5.32199 2.69429 5.32199 5.27775C5.32199 7.86122 7.4163 9.95553 9.99976 9.95553C12.5832 9.95553 14.6775 7.86122 14.6775 5.27775C14.6775 2.69429 12.5832 0.599976 9.99976 0.599976ZM9.99985 11.101C12.932 11.101 15.8052 11.9226 18.3092 13.4423C18.5025 13.5593 18.7366 13.7011 18.9329 13.9265C19.0988 14.117 19.2348 14.3591 19.3111 14.6C19.4017 14.8855 19.4008 15.1759 19.4001 15.4187L19.4 16.9303C19.4 17.1846 19.4 17.4267 19.3834 17.6306C19.3652 17.853 19.3228 18.1082 19.1929 18.3631C19.0107 18.7206 18.7201 19.0113 18.3626 19.1935C18.1076 19.3234 17.8525 19.3658 17.6301 19.3839C17.4261 19.4006 17.1841 19.4006 16.9297 19.4006H3.07022C2.8159 19.4006 2.57386 19.4006 2.3699 19.3839C2.14749 19.3658 1.89238 19.3234 1.6374 19.1935C1.27989 19.0113 0.989229 18.7206 0.80707 18.3631C0.677153 18.1082 0.634767 17.853 0.616596 17.6306C0.599931 17.4267 0.599955 17.1846 0.59998 16.9303L0.59986 15.4186C0.599149 15.1757 0.598299 14.8854 0.688847 14.5998C0.765213 14.359 0.901191 14.1169 1.06711 13.9263C1.26339 13.7009 1.49747 13.5592 1.69077 13.4421C4.19473 11.9225 7.0678 11.101 9.99985 11.101ZM2.42211 15.1076C4.61013 13.7104 7.20902 12.9005 9.99981 12.9005C12.7907 12.9005 15.3897 13.7104 17.5778 15.1078C17.5816 15.1102 17.5999 15.1257 17.5999 15.1651V17.5001C17.5999 17.5553 17.5552 17.6001 17.4999 17.6001H2.49994C2.44472 17.6001 2.39994 17.5553 2.39994 17.5001V15.1649C2.39994 15.1256 2.41829 15.11 2.42211 15.1076Z"/>
</svg>
