<svg width="16" height="16" viewBox="0 0 16 16" fill="currentColor" xmlns="http://www.w3.org/2000/svg">
<path fill-rule="evenodd" clip-rule="evenodd" d="M4.49168 4.45828C4.49168 2.52069 6.0624 0.949951 7.99999 0.949951C9.93758 0.949951 11.5083 2.52069 11.5083 4.45828C11.5083 6.39588 9.93758 7.96662 7.99999 7.96662C6.0624 7.96662 4.49168 6.39588 4.49168 4.45828ZM8.00006 8.82568C10.1992 8.82568 12.3541 9.44192 14.2321 10.5817C14.377 10.6695 14.5526 10.7758 14.6998 10.9448C14.8242 11.0878 14.9262 11.2693 14.9835 11.45C15.0514 11.6641 15.0508 11.8819 15.0502 12.064L15.0501 13.1977C15.0501 13.3884 15.0502 13.57 15.0377 13.7229C15.024 13.8898 14.9923 14.0811 14.8948 14.2723C14.7582 14.5404 14.5402 14.7584 14.2721 14.8951C14.0808 14.9925 13.8895 15.0243 13.7227 15.0379C13.5697 15.0504 13.3882 15.0504 13.1975 15.0504H2.80286C2.61212 15.0504 2.43058 15.0504 2.27761 15.0379C2.11081 15.0243 1.91948 14.9925 1.72825 14.8951C1.46012 14.7584 1.24212 14.5404 1.1055 14.2723C1.00806 14.0811 0.976274 13.8898 0.962645 13.7229C0.950147 13.57 0.950165 13.3884 0.950184 13.1977L0.950093 12.0639C0.94956 11.8817 0.948922 11.664 1.01683 11.4498C1.07411 11.2692 1.17609 11.0876 1.30053 10.9447C1.44774 10.7757 1.6233 10.6693 1.76827 10.5815C3.64624 9.44188 5.80103 8.82568 8.00006 8.82568Z" />
</svg>
