<svg  viewBox="0 0 161 161" fill="currentColor" xmlns="http://www.w3.org/2000/svg">
<path fill-rule="evenodd" clip-rule="evenodd" d="M50.6413 70.3572C50.6413 53.8675 64.0088 40.4999 80.4986 40.4999C96.9884 40.4999 110.356 53.8675 110.356 70.3572C110.356 86.8469 96.9884 100.214 80.4986 100.214C64.0088 100.214 50.6413 86.8469 50.6413 70.3572ZM80.4992 107.525C99.2146 107.525 117.554 112.77 133.536 122.47C134.77 123.217 136.264 124.122 137.517 125.56C138.576 126.776 139.444 128.322 139.931 129.859C140.509 131.682 140.504 133.535 140.499 135.085L140.498 144.733C140.499 146.356 140.499 147.901 140.392 149.203C140.276 150.623 140.006 152.251 139.177 153.878C138.014 156.16 136.159 158.015 133.877 159.178C132.249 160.007 130.621 160.278 129.201 160.394C127.9 160.5 126.355 160.5 124.731 160.5H36.2687C34.6454 160.5 33.1005 160.5 31.7986 160.394C30.379 160.278 28.7507 160.007 27.1232 159.178C24.8413 158.015 22.9861 156.16 21.8234 153.878C20.9942 152.251 20.7236 150.623 20.6076 149.203C20.5013 147.901 20.5014 146.356 20.5016 144.733L20.5008 135.084C20.4963 133.534 20.4909 131.68 21.0688 129.858C21.5562 128.321 22.4242 126.775 23.4832 125.559C24.736 124.12 26.2301 123.216 27.4639 122.468C43.4462 112.769 61.7844 107.525 80.4992 107.525Z" fill="currentColor"/>
</svg>
