<svg width="16" height="21" viewBox="0 0 16 21" fill="currentColor" xmlns="http://www.w3.org/2000/svg">
<path fill-rule="evenodd" clip-rule="evenodd" d="M4.99587 0.600018L5.00062 0.600006H11.0006L11.0054 0.600018H14.0006V2.40002H11.9006V8.12753L15.2209 12.5604C15.4252 12.8332 15.4579 13.1979 15.3054 13.5027C15.1529 13.8075 14.8413 13.9999 14.5005 13.9999H8.90072V20L8.00072 21L7.10072 20V13.9999H1.50053C1.15973 13.9999 0.84817 13.8075 0.695668 13.5027C0.543167 13.1979 0.575889 12.8331 0.7802 12.5604L4.10062 8.12752V2.40002H2.00062V0.600018H4.99587ZM5.90062 2.40002V8.42722C5.90062 8.62176 5.83758 8.81107 5.72095 8.96678L3.29916 12.1999H12.702L10.2803 8.96676C10.1636 8.81106 10.1006 8.62176 10.1006 8.42722V2.40002H5.90062Z"/>
</svg>
