<svg width="30" height="30" viewBox="0 0 30 30" fill="none" xmlns="http://www.w3.org/2000/svg">
<path d="M15.813 12.0551L15.813 4.53127L15.7168 2.67436L17.3909 4.56975L17.9297 5.09892C18.0836 5.24324 18.2856 5.33945 18.5166 5.33945C18.9688 5.33945 19.2863 5.01233 19.2863 4.56975C19.2863 4.33884 19.2093 4.13679 19.0553 3.99248L15.659 0.586547C15.457 0.374879 15.2261 0.269046 15.0048 0.269046C14.7835 0.269046 14.543 0.374879 14.3409 0.586547L10.9446 3.99247C10.7907 4.13679 10.7137 4.33884 10.7137 4.56975C10.7137 5.01233 11.0312 5.33945 11.4834 5.33945C11.7143 5.33945 11.9164 5.24324 12.0703 5.09892L12.6091 4.56975L14.2832 2.67436L14.1966 4.53127L14.1966 12.0551C14.1966 12.5458 14.5718 12.8633 15.0048 12.8633C15.4281 12.8633 15.813 12.5458 15.813 12.0551Z" fill="#2DDD93"/>
<path d="M5.72028 23.2483H11.8586V24.9897H11.8202C11.3391 24.9897 10.9446 25.3842 10.9446 25.8653C10.9446 26.3367 11.3391 26.7312 11.8202 26.7312H18.1798C18.6609 26.7312 19.0554 26.3367 19.0554 25.8653C19.0554 25.3842 18.6609 24.9897 18.1798 24.9897H18.1413V23.2483H24.2701C25.771 23.2483 26.6754 22.3535 26.6754 20.8526V9.25898C26.6754 7.75806 25.771 6.86328 24.2701 6.86328H17.1888V8.70094H24.1642C24.578 8.70094 24.8281 8.96072 24.8281 9.36481V20.7468C24.8281 21.1509 24.578 21.4106 24.1642 21.4106H5.83574C5.42202 21.4106 5.17187 21.1509 5.17187 20.7468V9.36481C5.17187 8.96072 5.42202 8.70094 5.83574 8.70094H12.7727V6.86328H5.72028C4.22898 6.86328 3.32458 7.75806 3.32458 9.25898V20.8526C3.32458 22.3535 4.22898 23.2483 5.72028 23.2483Z" fill="white"/>
</svg>
