<svg width="30" height="30" viewBox="0 0 30 30" fill="currentColor" xmlns="http://www.w3.org/2000/svg">
<path d="M11.8705 11.3477C11.3848 11.3477 10.9999 10.9614 10.9999 10.4649C10.9999 10.2442 11.0916 10.0235 11.2657 9.858L13.7582 7.34766L11.2657 4.84651C11.0916 4.68099 10.9999 4.4603 10.9999 4.23961C10.9999 3.74306 11.3848 3.36605 11.8705 3.36605C12.1271 3.36605 12.3287 3.44881 12.4936 3.61432L14.9954 6.11547L17.5062 3.60513C17.6895 3.43041 17.882 3.34766 18.1294 3.34766C18.6151 3.34766 18.9999 3.73386 18.9999 4.22122C18.9999 4.4511 18.9083 4.6534 18.7342 4.83731L16.2416 7.34766L18.7342 9.84881C18.8991 10.0235 18.9908 10.235 18.9908 10.4649C18.9908 10.9614 18.6059 11.3477 18.111 11.3477C17.8636 11.3477 17.6529 11.2557 17.4787 11.0902L14.9954 8.59823L12.512 11.0902C12.347 11.2649 12.1271 11.3477 11.8705 11.3477Z" fill="#F45D56" classname="off" />
<path d="M5.72028 23.1697H11.8586V24.9111H11.8202C11.3391 24.9111 10.9446 25.3056 10.9446 25.7867C10.9446 26.2581 11.3391 26.6526 11.8202 26.6526H18.1798C18.6609 26.6526 19.0554 26.2581 19.0554 25.7867C19.0554 25.3056 18.6609 24.9111 18.1798 24.9111H18.1413V23.1697H24.2701C25.771 23.1697 26.6754 22.2749 26.6754 20.774V9.18036C26.6754 7.67945 25.771 6.78467 24.2701 6.78467H19.9666V7.7035V8.62233H24.1642C24.578 8.62233 24.8281 8.8821 24.8281 9.2862V20.6682C24.8281 21.0722 24.578 21.332 24.1642 21.332H5.83574C5.42202 21.332 5.17187 21.0722 5.17187 20.6682V9.2862C5.17187 8.8821 5.42202 8.62233 5.83574 8.62233H9.99489V7.7035V6.78467H5.72028C4.22898 6.78467 3.32458 7.67945 3.32458 9.18036V20.774C3.32458 22.2749 4.22898 23.1697 5.72028 23.1697Z" fill="currentColor"/>
</svg>
