<svg width="30" height="30" viewBox="0 0 30 30" fill="currentColor" xmlns="http://www.w3.org/2000/svg">
<path d="M15.813 13.7035L15.813 6.1797L15.7168 4.3228L17.3909 6.21819L17.9297 6.74736C18.0836 6.89168 18.2856 6.98789 18.5166 6.98789C18.9688 6.98789 19.2863 6.66077 19.2863 6.21819C19.2863 5.98728 19.2093 5.78523 19.0553 5.64091L15.659 2.23498C15.457 2.02332 15.2261 1.91748 15.0048 1.91748C14.7835 1.91748 14.543 2.02332 14.3409 2.23498L10.9446 5.64091C10.7907 5.78523 10.7137 5.98728 10.7137 6.21819C10.7137 6.66077 11.0312 6.98789 11.4834 6.98789C11.7143 6.98789 11.9164 6.89168 12.0703 6.74736L12.6091 6.21819L14.2832 4.3228L14.1966 6.1797L14.1966 13.7035C14.1966 14.1942 14.5718 14.5117 15.0048 14.5117C15.4281 14.5117 15.813 14.1942 15.813 13.7035Z" fill="#2DDD93"/>
<path classname="" d="M5.72028 24.5994H11.8586V26.3408H11.8202C11.3391 26.3408 10.9446 26.7353 10.9446 27.2164C10.9446 27.6878 11.3391 28.0823 11.8202 28.0823H18.1798C18.6609 28.0823 19.0554 27.6878 19.0554 27.2164C19.0554 26.7353 18.6609 26.3408 18.1798 26.3408H18.1413V24.5994H24.2701C25.771 24.5994 26.6754 23.7046 26.6754 22.2037V10.6101C26.6754 9.10913 25.771 8.21436 24.2701 8.21436H17.1888V10.052H24.1642C24.578 10.052 24.8281 10.3118 24.8281 10.7159V22.0978C24.8281 22.5019 24.578 22.7617 24.1642 22.7617H5.83574C5.42202 22.7617 5.17187 22.5019 5.17187 22.0978V10.7159C5.17187 10.3118 5.42202 10.052 5.83574 10.052H12.7727V8.21436H5.72028C4.22898 8.21436 3.32458 9.10913 3.32458 10.6101V22.2037C3.32458 23.7046 4.22898 24.5994 5.72028 24.5994Z" fill="currentColor"/>
</svg>
