<svg width="21" height="21" viewBox="0 0 21 21" fill="none" xmlns="http://www.w3.org/2000/svg">
<path fill-rule="evenodd" clip-rule="evenodd" d="M8.99994 0.700012C4.41598 0.700012 0.699951 4.41605 0.699951 9.00001C0.699951 13.584 4.41598 17.3 8.99994 17.3C10.8228 17.3 12.5085 16.7124 13.8778 15.7161L18.5808 20.4192C19.0885 20.9269 19.9116 20.9269 20.4193 20.4192C20.927 19.9115 20.927 19.0884 20.4193 18.5807L15.7162 13.8776C16.7123 12.5084 17.2999 10.8228 17.2999 9.00001C17.2999 4.41605 13.5839 0.700012 8.99994 0.700012ZM3.29995 9.00001C3.29995 5.85199 5.85192 3.30001 8.99994 3.30001C12.148 3.30001 14.6999 5.85199 14.6999 9.00001C14.6999 12.148 12.148 14.7 8.99994 14.7C5.85192 14.7 3.29995 12.148 3.29995 9.00001Z" fill="#5B5D60"/>
</svg>
