<svg width="24" height="24" viewBox="0 0 24 24" fill="none" xmlns="http://www.w3.org/2000/svg">
<path fill-rule="evenodd" clip-rule="evenodd" d="M14.5 6.3C13.5611 6.3 12.8 7.06112 12.8 8C12.8 8.93888 13.5611 9.7 14.5 9.7C15.4389 9.7 16.2 8.93888 16.2 8C16.2 7.06112 15.4389 6.3 14.5 6.3ZM3.00012 8.99998H11.145C11.5752 10.4457 12.9145 11.5 14.5 11.5C16.0855 11.5 17.4248 10.4457 17.8551 8.99998H21.0001V7.19998H17.9082C17.5463 5.65251 16.1578 4.5 14.5 4.5C12.8423 4.5 11.4537 5.65251 11.0919 7.19998H3.00012V8.99998ZM12.8551 17H21.0001V15.2H12.9082C12.5463 13.6525 11.1578 12.5 9.50002 12.5C7.84228 12.5 6.45372 13.6525 6.09188 15.2H3.00012V17H6.14496C6.57522 18.4457 7.9145 19.5 9.50002 19.5C11.0855 19.5 12.4248 18.4457 12.8551 17ZM7.80003 16C7.80003 15.0611 8.56114 14.3 9.50002 14.3C10.4389 14.3 11.2 15.0611 11.2 16C11.2 16.9389 10.4389 17.7 9.50002 17.7C8.56114 17.7 7.80003 16.9389 7.80003 16Z" fill="currentColor"/>
</svg>
