<svg width="18" height="22" viewBox="0 0 18 22" fill="currentcolor" xmlns="http://www.w3.org/2000/svg">
<path fill-rule="evenodd" clip-rule="evenodd" d="M6 2.64961H12V0.849609H6V2.64961ZM18 6.15H16.6506L16.6506 18.6798C16.6506 18.9341 16.6506 19.1761 16.634 19.3801C16.6158 19.6025 16.5734 19.8576 16.4435 20.1126C16.2613 20.4701 15.9707 20.7608 15.6132 20.9429C15.3582 21.0728 15.1031 21.1152 14.8807 21.1334C14.6767 21.1501 14.4347 21.15 14.1804 21.15H3.82083C3.56653 21.15 3.32445 21.1501 3.1205 21.1334C2.89809 21.1152 2.64298 21.0728 2.38801 20.9429C2.0305 20.7608 1.73984 20.4701 1.55768 20.1126C1.42776 19.8576 1.38537 19.6025 1.3672 19.3801C1.35054 19.1761 1.35056 18.9341 1.35059 18.6798L1.35059 6.15H0V4.35H18V6.15ZM3.14976 6.15H14.8498V19.2494C14.8498 19.3047 14.805 19.3494 14.7498 19.3494H3.24976C3.19453 19.3494 3.14976 19.3047 3.14976 19.2494V6.15ZM10.1 15.75V9.75H11.9V15.75H10.1ZM6.1 9.75V15.75H7.9V9.75H6.1Z"/>
</svg>
